<?xml version="1.0" encoding="UTF-8"?>
<svg xmlns="http://www.w3.org/2000/svg" version="1.1" viewBox="0 0 1920 1080">
  <defs>
    <style>
      .cls-1 {
        stroke-width: 0px;
      }

      .cls-1, .cls-2, .cls-3 {
        fill: #000;
      }

      .cls-4 {
        fill: #524fa1;
        stroke: #524fa1;
      }

      .cls-4, .cls-5, .cls-2, .cls-3, .cls-6, .cls-7, .cls-8 {
        stroke-miterlimit: 10;
      }

      .cls-4, .cls-5, .cls-3, .cls-6, .cls-7, .cls-8 {
        stroke-width: 5px;
      }

      .cls-5 {
        fill: #f15a22;
        stroke: #f15a24;
      }

      .cls-2 {
        stroke: #000;
        stroke-width: .5px;
      }

      .cls-3, .cls-6 {
        stroke: #fff;
      }

      .cls-6 {
        fill: none;
      }

      .cls-7 {
        fill: #6dc8bf;
        stroke: #6dc8bf;
      }

      .cls-8 {
        fill: #fdb913;
        stroke: #fdb913;
      }
    </style>
  </defs>
  <g id="Layer_3" data-name="Layer 3">
    <rect class="cls-2" x="406.75" y="152.25" width="800" height="800" rx="74.55" ry="74.55"/>
  </g>
  <g id="Layer_4" data-name="Layer 4">
    <g>
      <rect class="cls-4" x="475.86" y="650.92" width="330.89" height="78.51" rx="18.5" ry="18.5"/>
      <rect class="cls-7" x="475.86" y="540.58" width="330.89" height="78.51" rx="18.5" ry="18.5"/>
      <rect class="cls-8" x="475.86" y="430.23" width="330.89" height="78.51" rx="18.5" ry="18.5"/>
      <rect class="cls-5" x="475.86" y="319.89" width="330.89" height="78.51" rx="18.5" ry="18.5"/>
    </g>
  </g>
  <g id="Layer_2" data-name="Layer 2">
    <g>
      <ellipse class="cls-1" cx="911.46" cy="521.48" rx="242.93" ry="246.15"/>
      <g>
        <path class="cls-1" d="M910.41,506.63"/>
        <rect class="cls-1" x="881.1" y="395.22" width="39.55" height="165.52" rx="7" ry="7"/>
        <path class="cls-1" d="M881.1,514.61c0-5.43,0,17.77,0,21.71v5.43c0,10.49,8.85,18.99,19.77,18.99h92.38c10.92,0,19.77-8.5,19.77-18.99v-5.43c0-10.49-8.85-18.99-19.77-18.99h-74.58"/>
      </g>
    </g>
    <g>
      <ellipse class="cls-3" cx="911.46" cy="521.48" rx="242.93" ry="246.15"/>
      <g>
        <path class="cls-6" d="M910.41,506.63"/>
        <rect class="cls-2" x="881.1" y="395.22" width="39.55" height="165.52" rx="7" ry="7"/>
        <path class="cls-6" d="M881.1,514.61c0-5.43,0,17.77,0,21.71v5.43c0,10.49,8.85,18.99,19.77,18.99h92.38c10.92,0,19.77-8.5,19.77-18.99v-5.43c0-10.49-8.85-18.99-19.77-18.99h-74.58"/>
      </g>
    </g>
    <g>
      <ellipse class="cls-6" cx="911.46" cy="521.48" rx="242.93" ry="246.15"/>
      <g>
        <path class="cls-6" d="M910.41,506.63"/>
        <rect class="cls-6" x="881.1" y="395.22" width="39.55" height="165.52" rx="7" ry="7"/>
        <path class="cls-6" d="M881.1,514.61c0-5.43,0,17.77,0,21.71v5.43c0,10.49,8.85,18.99,19.77,18.99h92.38c10.92,0,19.77-8.5,19.77-18.99v-5.43c0-10.49-8.85-18.99-19.77-18.99h-74.58"/>
      </g>
    </g>
  </g>
</svg>