<?xml version="1.0" encoding="UTF-8"?>
<svg xmlns="http://www.w3.org/2000/svg" version="1.1" viewBox="0 0 1920 1080">
  <defs>
    <style>
      .cls-1 {
        stroke-width: 0px;
      }

      .cls-1, .cls-2, .cls-3 {
        fill: #000;
      }

      .cls-4 {
        fill: #524fa1;
        stroke: #524fa1;
      }

      .cls-4, .cls-5, .cls-2, .cls-3, .cls-6, .cls-7, .cls-8 {
        stroke-miterlimit: 10;
      }

      .cls-4, .cls-5, .cls-3, .cls-6, .cls-7, .cls-8 {
        stroke-width: 5px;
      }

      .cls-5 {
        fill: #f15a22;
        stroke: #f15a24;
      }

      .cls-2 {
        stroke: #000;
        stroke-width: .5px;
      }

      .cls-3, .cls-6 {
        stroke: #fff;
      }

      .cls-6 {
        fill: none;
      }

      .cls-7 {
        fill: #6dc8bf;
        stroke: #6dc8bf;
      }

      .cls-8 {
        fill: #fdb913;
        stroke: #fdb913;
      }
    </style>
  </defs>
  <g id="Layer_3" data-name="Layer 3">
    <rect class="cls-2" x="-.25" y=".25" width="1920" height="1080" rx="74.55" ry="74.55"/>
  </g>
  <g id="Layer_4" data-name="Layer 4">
    <g>
      <rect class="cls-4" x="165.61" y="673.46" width="794.14" height="105.99" rx="18.5" ry="18.5"/>
      <rect class="cls-7" x="165.61" y="524.49" width="794.14" height="105.99" rx="18.5" ry="18.5"/>
      <rect class="cls-8" x="165.61" y="375.53" width="794.14" height="105.99" rx="18.5" ry="18.5"/>
      <rect class="cls-5" x="165.61" y="226.56" width="794.14" height="105.99" rx="18.5" ry="18.5"/>
    </g>
  </g>
  <g id="Layer_2" data-name="Layer 2">
    <g>
      <ellipse class="cls-1" cx="1211.06" cy="498.71" rx="583.04" ry="332.31"/>
      <g>
        <path class="cls-1" d="M1208.55,478.66"/>
        <rect class="cls-1" x="1138.18" y="328.26" width="94.91" height="223.45" rx="7" ry="7"/>
        <path class="cls-1" d="M1138.18,489.44c0-7.33,0,23.99,0,29.3v7.33c0,14.16,21.25,25.64,47.45,25.64h221.7c26.21,0,47.45-11.48,47.45-25.64v-7.33c0-14.16-21.25-25.64-47.45-25.64h-178.99"/>
      </g>
    </g>
    <g>
      <ellipse class="cls-3" cx="1211.06" cy="498.71" rx="583.04" ry="332.31"/>
      <g>
        <path class="cls-6" d="M1208.55,478.66"/>
        <rect class="cls-2" x="1138.18" y="328.26" width="94.91" height="223.45" rx="7" ry="7"/>
        <path class="cls-6" d="M1138.18,489.44c0-7.33,0,23.99,0,29.3v7.33c0,14.16,21.25,25.64,47.45,25.64h221.7c26.21,0,47.45-11.48,47.45-25.64v-7.33c0-14.16-21.25-25.64-47.45-25.64h-178.99"/>
      </g>
    </g>
    <g>
      <ellipse class="cls-6" cx="1211.06" cy="498.71" rx="583.04" ry="332.31"/>
      <g>
        <path class="cls-6" d="M1208.55,478.66"/>
        <rect class="cls-6" x="1138.18" y="328.26" width="94.91" height="223.45" rx="7" ry="7"/>
        <path class="cls-6" d="M1138.18,489.44c0-7.33,0,23.99,0,29.3v7.33c0,14.16,21.25,25.64,47.45,25.64h221.7c26.21,0,47.45-11.48,47.45-25.64v-7.33c0-14.16-21.25-25.64-47.45-25.64h-178.99"/>
      </g>
    </g>
  </g>
</svg>